<svg width="143" height="29" viewBox="0 0 143 29" fill="none" xmlns="http://www.w3.org/2000/svg">
<path d="M16.6613 25.7387C14.8551 27.5449 12.7076 28.448 10.2187 28.448C8.45511 28.448 6.92622 28.1422 5.632 27.5307C4.352 26.9191 3.33511 26.0373 2.58133 24.8853C1.82756 23.7333 1.27289 22.4178 0.917333 20.9387C0.576 19.4596 0.405333 17.7742 0.405333 15.8827C0.405333 14.4747 0.476444 13.2089 0.618667 12.0853C0.775111 10.9618 1.024 9.888 1.36533 8.864C1.70667 7.84 2.176 6.95822 2.77333 6.21867C3.37067 5.46489 4.10311 4.81067 4.97067 4.256C5.83822 3.70133 6.89067 3.28889 8.128 3.01867C9.36533 2.73422 10.7733 2.592 12.352 2.592C13.0631 2.592 13.7387 2.63467 14.3787 2.72C15.0329 2.80533 15.5876 2.912 16.0427 3.04C16.4978 3.15378 16.9244 3.30311 17.3227 3.488C17.7351 3.65867 18.0551 3.81511 18.2827 3.95733C18.5244 4.08533 18.7449 4.22756 18.944 4.384C19.1431 4.54045 19.264 4.64711 19.3067 4.704C19.3636 4.76089 19.4062 4.80356 19.4347 4.832L19.1147 9.73867H15.232L14.016 6.90133C13.7031 6.73067 13.1982 6.64533 12.5013 6.64533C11.9324 6.64533 11.4631 6.69511 11.0933 6.79467C10.7236 6.89422 10.3538 7.10756 9.984 7.43467C9.62844 7.74756 9.344 8.20978 9.13067 8.82133C8.93156 9.41867 8.768 10.2364 8.64 11.2747C8.512 12.2987 8.448 13.5502 8.448 15.0293C8.448 18.1156 8.61156 20.4053 8.93867 21.8987C9.28 23.392 9.95556 24.1387 10.9653 24.1387C11.4631 24.1387 11.8827 24.096 12.224 24.0107C12.5653 23.9111 12.8853 23.7404 13.184 23.4987C13.4827 23.2427 13.7031 22.8729 13.8453 22.3893C13.9876 21.8916 14.0587 21.2587 14.0587 20.4907V18.3147L11.2427 17.6747V13.3227H20.736L20.7147 28H16.9173L16.6613 25.7387ZM29.9922 28H23.1015V14.1973L21.8215 13.408V10.9973L26.4082 9.86667H28.1362L28.7548 14.944C29.3379 11.4596 31.2082 9.71733 34.3655 9.71733C34.7211 9.71733 35.0908 9.78133 35.4748 9.90933L34.7495 17.504C34.4508 17.2338 33.7966 17.0987 32.7868 17.0987C31.3362 17.0987 30.4046 17.4827 29.9922 18.2507V28ZM46.7427 16.9707C46.7427 15.1644 46.6502 13.8844 46.4653 13.1307C46.2804 12.3769 45.9391 12 45.4413 12C45.0147 12 44.6662 12.0782 44.396 12.2347C44.1258 12.3769 43.9267 12.6116 43.7987 12.9387C43.6707 13.2516 43.5853 13.5787 43.5427 13.92C43.5142 14.2471 43.5 14.6667 43.5 15.1787V16.9707H46.7427ZM45.036 28.448C43.4431 28.448 42.0564 28.2062 40.876 27.7227C39.7098 27.2391 38.7853 26.5636 38.1027 25.696C37.4342 24.8284 36.9436 23.8542 36.6307 22.7733C36.3178 21.6782 36.1613 20.4622 36.1613 19.1253C36.1613 15.9396 36.972 13.5289 38.5933 11.8933C40.2147 10.2578 42.4831 9.44 45.3987 9.44C48.2004 9.44 50.2058 10.1013 51.4147 11.424C52.6236 12.7324 53.228 14.8444 53.228 17.76V20.128H43.4787V20.5333C43.4787 21.3724 43.564 22.0622 43.7347 22.6027C43.9196 23.1431 44.1827 23.5413 44.524 23.7973C44.8653 24.0533 45.2138 24.224 45.5693 24.3093C45.9249 24.3947 46.3587 24.4373 46.8707 24.4373C47.3684 24.4373 47.9018 24.3733 48.4707 24.2453C49.0538 24.1173 49.6369 23.9182 50.22 23.648C50.8173 23.3778 51.3151 23.0578 51.7133 22.688L52.972 24.8427C52.4458 25.696 51.6707 26.4142 50.6467 26.9973C49.6369 27.5662 48.6627 27.9502 47.724 28.1493C46.7853 28.3484 45.8893 28.448 45.036 28.448ZM65.1177 16.9707C65.1177 15.1644 65.0252 13.8844 64.8403 13.1307C64.6554 12.3769 64.3141 12 63.8163 12C63.3897 12 63.0412 12.0782 62.771 12.2347C62.5008 12.3769 62.3017 12.6116 62.1737 12.9387C62.0457 13.2516 61.9603 13.5787 61.9177 13.92C61.8892 14.2471 61.875 14.6667 61.875 15.1787V16.9707H65.1177ZM63.411 28.448C61.8181 28.448 60.4314 28.2062 59.251 27.7227C58.0848 27.2391 57.1603 26.5636 56.4777 25.696C55.8092 24.8284 55.3186 23.8542 55.0057 22.7733C54.6928 21.6782 54.5363 20.4622 54.5363 19.1253C54.5363 15.9396 55.347 13.5289 56.9683 11.8933C58.5897 10.2578 60.8581 9.44 63.7737 9.44C66.5754 9.44 68.5808 10.1013 69.7897 11.424C70.9986 12.7324 71.603 14.8444 71.603 17.76V20.128H61.8537V20.5333C61.8537 21.3724 61.939 22.0622 62.1097 22.6027C62.2946 23.1431 62.5577 23.5413 62.899 23.7973C63.2403 24.0533 63.5888 24.224 63.9443 24.3093C64.2999 24.3947 64.7337 24.4373 65.2457 24.4373C65.7434 24.4373 66.2768 24.3733 66.8457 24.2453C67.4288 24.1173 68.0119 23.9182 68.595 23.648C69.1923 23.3778 69.6901 23.0578 70.0883 22.688L71.347 24.8427C70.8208 25.696 70.0457 26.4142 69.0217 26.9973C68.0119 27.5662 67.0377 27.9502 66.099 28.1493C65.1603 28.3484 64.2643 28.448 63.411 28.448ZM80.8047 28H73.914V14.1973L72.634 13.408V11.1253L77.2207 9.86667H80.8473V12.6187L81.1033 12.2987C81.274 12.0711 81.5229 11.8009 81.85 11.488C82.1913 11.1751 82.5682 10.8693 82.9807 10.5707C83.3931 10.2578 83.8838 9.99467 84.4527 9.78133C85.0358 9.55378 85.6047 9.44 86.1593 9.44C88.1078 9.44 89.4802 9.97333 90.2767 11.04C91.0873 12.1067 91.4927 13.8916 91.4927 16.3947C91.4927 16.48 91.4927 16.608 91.4927 16.7787C91.4784 16.9493 91.4713 17.0844 91.4713 17.184V28H84.4313V16.5653C84.474 15.2284 83.9051 14.56 82.7247 14.56C82.6393 14.56 82.554 14.5671 82.4687 14.5813C82.3976 14.5956 82.3264 14.6098 82.2553 14.624C82.1984 14.6382 82.1273 14.6667 82.042 14.7093C81.9709 14.7378 81.9069 14.7662 81.85 14.7947C81.7931 14.8089 81.7291 14.8444 81.658 14.9013C81.5869 14.944 81.53 14.9796 81.4873 15.008C81.4447 15.0364 81.3807 15.0862 81.2953 15.1573C81.2242 15.2142 81.1673 15.2569 81.1247 15.2853C81.0962 15.3138 81.0393 15.3636 80.954 15.4347C80.8829 15.4916 80.8331 15.5342 80.8047 15.5627V28ZM94.164 28V14.1973L92.884 13.408V11.1253L97.4707 9.86667H101.033V28H94.164ZM97.2573 7.904L93.7587 4.384V3.63733L97.2573 0.138666H98.068L101.716 3.63733V4.384L98.068 7.904H97.2573ZM112.552 25.888C113.178 25.888 113.655 25.632 113.982 25.12C114.323 24.5938 114.494 23.8756 114.494 22.9653V16.224C114.494 13.4507 113.84 12.064 112.531 12.064C111.92 12.064 111.443 12.3129 111.102 12.8107C110.76 13.3084 110.59 14.0124 110.59 14.9227V21.856C110.59 24.544 111.244 25.888 112.552 25.888ZM112.382 28.448C109.125 28.448 106.743 27.7084 105.235 26.2293C103.728 24.7502 102.974 22.3893 102.974 19.1467C102.974 15.9324 103.735 13.5147 105.257 11.8933C106.778 10.2578 109.253 9.44 112.681 9.44C116.023 9.44 118.433 10.2222 119.913 11.7867C121.406 13.3369 122.153 15.6907 122.153 18.848C122.153 22.1191 121.363 24.5369 119.785 26.1013C118.22 27.6658 115.752 28.448 112.382 28.448ZM131.367 28H124.477V14.1973L123.197 13.408V11.1253L127.783 9.86667H131.41V12.6187L131.666 12.2987C131.836 12.0711 132.085 11.8009 132.412 11.488C132.754 11.1751 133.131 10.8693 133.543 10.5707C133.956 10.2578 134.446 9.99467 135.015 9.78133C135.598 9.55378 136.167 9.44 136.722 9.44C138.67 9.44 140.043 9.97333 140.839 11.04C141.65 12.1067 142.055 13.8916 142.055 16.3947C142.055 16.48 142.055 16.608 142.055 16.7787C142.041 16.9493 142.034 17.0844 142.034 17.184V28H134.994V16.5653C135.037 15.2284 134.468 14.56 133.287 14.56C133.202 14.56 133.116 14.5671 133.031 14.5813C132.96 14.5956 132.889 14.6098 132.818 14.624C132.761 14.6382 132.69 14.6667 132.604 14.7093C132.533 14.7378 132.469 14.7662 132.412 14.7947C132.356 14.8089 132.292 14.8444 132.22 14.9013C132.149 14.944 132.093 14.9796 132.05 15.008C132.007 15.0364 131.943 15.0862 131.858 15.1573C131.787 15.2142 131.73 15.2569 131.687 15.2853C131.659 15.3138 131.602 15.3636 131.516 15.4347C131.445 15.4916 131.396 15.5342 131.367 15.5627V28Z" fill="#AFF4C6"/>
</svg>
