<svg width="29" height="29" viewBox="0 0 29 29" fill="none" xmlns="http://www.w3.org/2000/svg">
<path d="M9.66675 25.375H19.3334M14.5001 20.5417V25.375M4.83341 3.625H24.1667C25.5014 3.625 26.5834 4.70698 26.5834 6.04167V18.125C26.5834 19.4597 25.5014 20.5417 24.1667 20.5417H4.83341C3.49873 20.5417 2.41675 19.4597 2.41675 18.125V6.04167C2.41675 4.70698 3.49873 3.625 4.83341 3.625Z" stroke="#AFF4C6" stroke-width="2" stroke-linecap="round" stroke-linejoin="round"/>
<g clip-path="url(#clip0_31_1365)">
<path d="M14.4998 7.04858V9.06247M14.4998 15.1041V17.118M10.9403 8.52376L12.3651 9.94858M16.6345 14.218L18.0594 15.6429M9.46509 12.0833H11.479M17.5206 12.0833H19.5345M10.9403 15.6429L12.3651 14.218M16.6345 9.94858L18.0594 8.52376" stroke="#AFF4C6" stroke-linecap="round" stroke-linejoin="round"/>
</g>
<defs>
<clipPath id="clip0_31_1365">
<rect width="12.0833" height="12.0833" fill="white" transform="translate(8.45825 6.04163)"/>
</clipPath>
</defs>
</svg>
